<svg xmlns="http://www.w3.org/2000/svg" width="23.996" height="23.995" viewBox="0 0 23.996 23.995">
  <path id="Search" d="M1340.94,191.664l-.6-.606a1.141,1.141,0,0,1,0-1.611l7.653-7.653a8.779,8.779,0,1,1,2.216,2.216l-7.653,7.654a1.143,1.143,0,0,1-1.611,0Zm-.068-1.679a.382.382,0,0,0,0,.536l.606.606a.38.38,0,0,0,.536,0l7.582-7.581q-.309-.257-.6-.545t-.545-.6Zm8.663-18.873a8.025,8.025,0,1,0,5.676-2.352A7.971,7.971,0,0,0,1349.535,171.112Z" transform="translate(-1340.002 -168.001)" fill="#008795"/>
</svg>
